<?xml version="1.0" encoding="UTF-8" standalone="no"?>
<svg width="464px" height="119px" viewBox="0 0 464 119" version="1.1" xmlns="http://www.w3.org/2000/svg" xmlns:xlink="http://www.w3.org/1999/xlink">
    <!-- Generator: Sketch 39.1 (31720) - http://www.bohemiancoding.com/sketch -->
    <title>NEJEN o PHP</title>
    <desc>Created with Sketch.</desc>
    <defs></defs>
    <g id="Page-1" stroke="none" stroke-width="1" fill="none" fill-rule="evenodd">
        <g id="Desktop-HD" transform="translate(-494.000000, -339.000000)" fill="#303030">
            <path d="M498.856,454.344 L498.856,406.176 C498.856,404.88 497.848,403.872 496.48,403.872 C495.184,403.872 494.104,404.88 494.104,406.176 L494.104,454.344 C494.104,455.64 495.184,456.792 496.48,456.792 C497.848,456.792 498.856,455.64 498.856,454.344 L498.856,454.344 Z M538.168,454.344 L538.168,406.176 C538.168,404.88 537.088,403.872 535.72,403.872 C534.424,403.872 533.344,404.88 533.344,406.176 L533.344,454.344 C533.344,455.64 534.424,456.792 535.72,456.792 C537.088,456.792 538.168,455.64 538.168,454.344 L538.168,454.344 Z M529.024,452.976 L508.072,423.024 C507.352,421.872 505.768,421.584 504.76,422.448 C504.04,422.88 503.752,423.6 503.752,424.392 L503.752,454.344 C503.752,455.64 504.76,456.72 506.056,456.72 C507.424,456.72 508.504,455.64 508.504,454.344 L508.504,432.024 L525.064,455.712 C525.856,456.792 527.296,457.08 528.448,456.36 C529.456,455.496 529.744,454.056 529.024,452.976 L529.024,452.976 Z M503.248,407.616 L524.128,437.568 C524.92,438.648 526.36,438.936 527.44,438.144 C528.16,437.712 528.52,436.92 528.52,436.128 L528.52,406.176 C528.52,404.88 527.44,403.872 526.144,403.872 C524.848,403.872 523.696,404.88 523.696,406.176 L523.696,428.568 L507.136,404.88 C506.416,403.8 504.904,403.44 503.824,404.304 C502.744,405.024 502.456,406.464 503.248,407.616 L503.248,407.616 Z M577.048,413.448 L561.784,413.448 C560.416,413.448 559.336,414.456 559.336,415.824 L559.336,425.472 C559.336,426.768 560.416,427.848 561.784,427.848 L572.584,427.848 C573.952,427.848 575.032,426.768 575.032,425.472 C575.032,424.104 573.952,423.024 572.584,423.024 L564.16,423.024 L564.16,418.2 L577.048,418.2 C578.416,418.2 579.496,417.12 579.496,415.824 C579.496,414.456 578.416,413.448 577.048,413.448 L577.048,413.448 Z M572.584,432.672 L561.784,432.672 C560.416,432.672 559.336,433.752 559.336,435.048 L559.336,444.696 C559.336,445.992 560.416,447.072 561.784,447.072 L577.048,447.072 C578.416,447.072 579.496,445.992 579.496,444.696 C579.496,443.328 578.416,442.248 577.048,442.248 L564.16,442.248 L564.16,437.496 L572.584,437.496 C573.952,437.496 575.032,436.416 575.032,435.048 C575.032,433.752 573.952,432.672 572.584,432.672 L572.584,432.672 Z M577.048,451.896 L554.584,451.896 L554.584,408.624 L577.048,408.624 C578.416,408.624 579.496,407.544 579.496,406.176 C579.496,404.88 578.416,403.8 577.048,403.8 L552.136,403.8 C550.84,403.8 549.76,404.88 549.76,406.176 L549.76,454.344 C549.76,455.64 550.84,456.72 552.136,456.72 L577.048,456.72 C578.416,456.72 579.496,455.64 579.496,454.344 C579.496,452.976 578.416,451.896 577.048,451.896 L577.048,451.896 Z M588.064,456.72 L597.568,456.72 C608.008,456.72 614.2,449.088 614.2,439.872 L614.2,406.176 C614.2,404.88 613.12,403.8 611.824,403.8 C610.456,403.8 609.376,404.88 609.376,406.176 L609.376,439.872 C609.376,446.496 605.128,451.968 597.568,451.896 L588.064,451.896 C586.768,451.896 585.688,452.976 585.688,454.344 C585.688,455.64 586.768,456.72 588.064,456.72 L588.064,456.72 Z M599.8,439.872 C599.8,441.312 598.648,442.248 597.28,442.248 L588.784,442.248 C587.416,442.248 586.336,443.328 586.336,444.696 C586.336,445.992 587.416,447.072 588.784,447.072 L597.28,447.072 C601.312,447.072 604.552,443.976 604.552,439.872 L604.552,406.176 C604.552,404.88 603.472,403.8 602.176,403.8 C600.88,403.8 599.8,404.88 599.8,406.176 L599.8,439.872 Z M652.936,413.448 L637.672,413.448 C636.304,413.448 635.224,414.456 635.224,415.824 L635.224,425.472 C635.224,426.768 636.304,427.848 637.672,427.848 L648.472,427.848 C649.84,427.848 650.92,426.768 650.92,425.472 C650.92,424.104 649.84,423.024 648.472,423.024 L640.048,423.024 L640.048,418.2 L652.936,418.2 C654.304,418.2 655.384,417.12 655.384,415.824 C655.384,414.456 654.304,413.448 652.936,413.448 L652.936,413.448 Z M648.472,432.672 L637.672,432.672 C636.304,432.672 635.224,433.752 635.224,435.048 L635.224,444.696 C635.224,445.992 636.304,447.072 637.672,447.072 L652.936,447.072 C654.304,447.072 655.384,445.992 655.384,444.696 C655.384,443.328 654.304,442.248 652.936,442.248 L640.048,442.248 L640.048,437.496 L648.472,437.496 C649.84,437.496 650.92,436.416 650.92,435.048 C650.92,433.752 649.84,432.672 648.472,432.672 L648.472,432.672 Z M652.936,451.896 L630.472,451.896 L630.472,408.624 L652.936,408.624 C654.304,408.624 655.384,407.544 655.384,406.176 C655.384,404.88 654.304,403.8 652.936,403.8 L628.024,403.8 C626.728,403.8 625.648,404.88 625.648,406.176 L625.648,454.344 C625.648,455.64 626.728,456.72 628.024,456.72 L652.936,456.72 C654.304,456.72 655.384,455.64 655.384,454.344 C655.384,452.976 654.304,451.896 652.936,451.896 L652.936,451.896 Z M669.784,454.344 L669.784,406.176 C669.784,404.88 668.776,403.872 667.408,403.872 C666.112,403.872 665.032,404.88 665.032,406.176 L665.032,454.344 C665.032,455.64 666.112,456.792 667.408,456.792 C668.776,456.792 669.784,455.64 669.784,454.344 L669.784,454.344 Z M709.096,454.344 L709.096,406.176 C709.096,404.88 708.016,403.872 706.648,403.872 C705.352,403.872 704.272,404.88 704.272,406.176 L704.272,454.344 C704.272,455.64 705.352,456.792 706.648,456.792 C708.016,456.792 709.096,455.64 709.096,454.344 L709.096,454.344 Z M699.952,452.976 L679,423.024 C678.28,421.872 676.696,421.584 675.688,422.448 C674.968,422.88 674.68,423.6 674.68,424.392 L674.68,454.344 C674.68,455.64 675.688,456.72 676.984,456.72 C678.352,456.72 679.432,455.64 679.432,454.344 L679.432,432.024 L695.992,455.712 C696.784,456.792 698.224,457.08 699.376,456.36 C700.384,455.496 700.672,454.056 699.952,452.976 L699.952,452.976 Z M674.176,407.616 L695.056,437.568 C695.848,438.648 697.288,438.936 698.368,438.144 C699.088,437.712 699.448,436.92 699.448,436.128 L699.448,406.176 C699.448,404.88 698.368,403.872 697.072,403.872 C695.776,403.872 694.624,404.88 694.624,406.176 L694.624,428.568 L678.064,404.88 C677.344,403.8 675.832,403.44 674.752,404.304 C673.672,405.024 673.384,406.464 674.176,407.616 L674.176,407.616 Z M793.336,421.944 C791.536,416.256 787.936,411.432 783.256,407.976 C778.576,404.664 772.96,402.72 766.768,402.72 C730.264,402.72 730.264,457.656 766.768,457.656 C772.96,457.656 778.576,455.64 783.256,452.328 C787.936,448.944 791.536,444.048 793.336,438.432 C793.696,437.136 793.048,435.696 791.752,435.336 C790.456,434.976 789.016,435.624 788.656,436.92 C787.144,441.6 784.264,445.56 780.304,448.368 C776.56,451.104 771.88,452.688 766.768,452.688 C736.744,452.688 736.744,407.616 766.768,407.616 C771.88,407.616 776.56,409.272 780.304,411.936 C784.264,414.816 787.144,418.776 788.656,423.384 C789.016,424.68 790.456,425.4 791.752,424.968 C793.048,424.608 793.696,423.24 793.336,421.944 L793.336,421.944 Z M751.936,438.864 C753.448,441.528 755.608,443.76 758.2,445.344 C760.792,446.784 763.744,447.648 766.768,447.648 C771.592,447.648 775.912,445.704 779.08,442.464 C782.104,439.296 784.048,434.976 784.048,430.152 C784.048,425.328 782.104,421.008 779.08,417.84 C775.912,414.672 771.592,412.728 766.768,412.728 C763.744,412.728 760.792,413.52 758.2,415.032 C755.608,416.544 753.448,418.776 751.936,421.44 C751.216,422.664 751.648,424.176 752.8,424.824 C754.024,425.472 755.464,425.04 756.112,423.816 C757.264,421.944 758.848,420.36 760.72,419.28 C762.52,418.2 764.536,417.624 766.768,417.624 C770.224,417.624 773.32,419.064 775.48,421.296 C777.784,423.528 779.152,426.696 779.152,430.152 C779.152,433.68 777.784,436.848 775.48,439.08 C773.32,441.384 770.224,442.752 766.768,442.752 C764.536,442.752 762.448,442.104 760.72,441.024 C758.848,440.016 757.264,438.36 756.112,436.488 C755.464,435.264 754.024,434.904 752.8,435.552 C751.648,436.272 751.216,437.64 751.936,438.864 L751.936,438.864 Z M844.096,427.848 C853.744,427.848 853.744,413.448 844.096,413.448 L835.6,413.448 C832.432,413.448 832.432,418.272 835.6,418.272 L844.096,418.272 C847.408,418.272 847.408,423.096 844.096,423.096 C842.224,423.096 838.984,422.52 838.984,425.472 C838.984,428.352 842.224,427.848 844.096,427.848 L844.096,427.848 Z M828.4,454.272 L828.4,408.624 L844.96,408.624 C860.44,408.624 860.44,432.672 844.96,432.672 L835.6,432.672 C834.304,432.672 833.152,433.752 833.152,435.048 L833.152,454.272 C833.152,457.44 838.048,457.44 838.048,454.272 L838.048,437.496 L844.96,437.496 C866.704,437.496 866.776,403.872 844.96,403.872 L825.952,403.872 C824.656,403.872 823.576,404.88 823.576,406.32 L823.576,454.272 C823.576,457.44 828.4,457.44 828.4,454.272 L828.4,454.272 Z M879.088,406.176 L879.088,425.472 C879.088,426.768 880.168,427.848 881.464,427.848 L895.936,427.848 C897.232,427.848 898.312,426.768 898.312,425.472 L898.312,406.176 C898.312,404.88 897.232,403.8 895.936,403.8 C894.568,403.8 893.488,404.88 893.488,406.176 L893.488,423.024 L883.912,423.024 L883.912,406.176 C883.912,404.88 882.832,403.8 881.464,403.8 C880.168,403.8 879.088,404.88 879.088,406.176 L879.088,406.176 Z M898.312,454.344 L898.312,435.048 C898.312,433.752 897.232,432.672 895.936,432.672 L881.464,432.672 C880.168,432.672 879.088,433.752 879.088,435.048 L879.088,454.344 C879.088,455.64 880.168,456.72 881.464,456.72 C882.832,456.72 883.912,455.64 883.912,454.344 L883.912,437.496 L893.488,437.496 L893.488,454.344 C893.488,455.64 894.568,456.72 895.936,456.72 C897.232,456.72 898.312,455.64 898.312,454.344 L898.312,454.344 Z M874.264,454.344 L874.264,406.176 C874.264,404.88 873.184,403.8 871.888,403.8 C870.52,403.8 869.44,404.88 869.44,406.176 L869.44,454.344 C869.44,455.64 870.52,456.72 871.888,456.72 C873.184,456.72 874.264,455.64 874.264,454.344 L874.264,454.344 Z M903.136,406.176 L903.136,454.344 C903.136,455.64 904.216,456.72 905.512,456.72 C906.88,456.72 907.96,455.64 907.96,454.344 L907.96,406.176 C907.96,404.88 906.88,403.8 905.512,403.8 C904.216,403.8 903.136,404.88 903.136,406.176 L903.136,406.176 Z M940.072,427.848 C949.72,427.848 949.72,413.448 940.072,413.448 L931.576,413.448 C928.408,413.448 928.408,418.272 931.576,418.272 L940.072,418.272 C943.384,418.272 943.384,423.096 940.072,423.096 C938.2,423.096 934.96,422.52 934.96,425.472 C934.96,428.352 938.2,427.848 940.072,427.848 L940.072,427.848 Z M924.376,454.272 L924.376,408.624 L940.936,408.624 C956.416,408.624 956.416,432.672 940.936,432.672 L931.576,432.672 C930.28,432.672 929.128,433.752 929.128,435.048 L929.128,454.272 C929.128,457.44 934.024,457.44 934.024,454.272 L934.024,437.496 L940.936,437.496 C962.68,437.496 962.752,403.872 940.936,403.872 L921.928,403.872 C920.632,403.872 919.552,404.88 919.552,406.32 L919.552,454.272 C919.552,457.44 924.376,457.44 924.376,454.272 L924.376,454.272 Z" id="NEJEN-o-PHP"></path>
            <path d="M572.527,352.514 L565.009,352.514 C564.757,352.514 564.547,352.724 564.547,352.976 L564.547,377 C564.547,377.252 564.757,377.462 565.009,377.462 C565.261,377.462 565.471,377.252 565.471,377 L565.471,353.522 L572.527,353.522 C572.779,353.522 572.989,353.27 572.989,352.976 C572.989,352.724 572.779,352.514 572.527,352.514 L572.527,352.514 Z M551.527,347.474 L572.485,347.474 C572.779,347.474 572.989,347.264 572.989,347.012 C572.989,346.76 572.779,346.55 572.485,346.55 L551.527,346.55 C551.275,346.55 551.065,346.76 551.065,347.012 C551.065,347.264 551.275,347.474 551.527,347.474 L551.527,347.474 Z M551.527,353.522 L558.541,353.522 L558.541,377 C558.541,377.252 558.751,377.462 559.045,377.462 C559.297,377.462 559.507,377.252 559.507,377 L559.507,352.976 C559.507,352.724 559.297,352.514 559.045,352.514 L551.527,352.514 C551.275,352.514 551.065,352.724 551.065,352.976 C551.065,353.27 551.275,353.522 551.527,353.522 L551.527,353.522 Z M608.059,357.092 C605.917,350.414 599.533,345.878 592.519,345.878 C583.027,345.878 576.475,352.682 576.475,361.922 C576.475,371.204 583.027,378.008 592.519,378.008 C599.533,378.008 605.917,373.514 608.059,366.752 C608.143,366.5 607.975,366.206 607.723,366.122 C607.429,366.038 607.177,366.164 607.093,366.458 C605.077,372.8 599.155,377 592.519,377 C583.615,377 577.441,370.658 577.441,361.922 C577.441,353.186 583.615,346.886 592.519,346.886 C599.155,346.886 605.077,351.086 607.093,357.386 C607.177,357.68 607.429,357.806 607.723,357.722 C607.975,357.68 608.143,357.344 608.059,357.092 L608.059,357.092 Z M584.119,366.836 C585.841,369.86 589.033,371.792 592.519,371.792 C597.937,371.792 602.221,367.298 602.221,361.922 C602.221,356.588 597.937,352.094 592.519,352.094 C589.033,352.094 585.841,353.984 584.119,357.008 C583.993,357.26 584.077,357.554 584.287,357.722 C584.539,357.848 584.875,357.764 585.001,357.512 C586.513,354.782 589.369,353.06 592.519,353.06 C597.391,353.06 601.213,357.092 601.213,361.922 C601.213,366.752 597.391,370.784 592.519,370.784 C589.369,370.784 586.513,369.062 585.001,366.332 C584.875,366.122 584.539,366.038 584.287,366.164 C584.077,366.29 583.993,366.626 584.119,366.836 L584.119,366.836 Z M638.677,377 L638.677,358.016 C638.677,357.512 638.089,357.302 637.795,357.764 L629.269,369.944 L620.743,357.722 C620.449,357.344 619.819,357.512 619.819,358.016 L619.819,377 C619.819,377.252 620.029,377.462 620.281,377.462 C620.617,377.462 620.827,377.252 620.827,377 L620.827,359.57 L628.807,371.12 C628.849,371.162 628.891,371.204 628.933,371.246 C629.227,371.372 629.521,371.33 629.647,371.12 L637.711,359.57 L637.711,377 C637.711,377.252 637.921,377.462 638.215,377.462 C638.467,377.462 638.677,377.252 638.677,377 L638.677,377 Z M614.737,377 L614.737,346.508 C614.737,346.256 614.485,346.046 614.191,346.046 C613.939,346.046 613.729,346.256 613.729,346.508 L613.729,377 C613.729,377.252 613.939,377.462 614.191,377.462 C614.485,377.462 614.737,377.252 614.737,377 L614.737,377 Z M644.767,377 L644.767,346.508 C644.767,346.256 644.557,346.046 644.263,346.046 C644.011,346.046 643.801,346.256 643.801,346.508 L643.801,377 C643.801,377.252 644.011,377.462 644.263,377.462 C644.557,377.462 644.767,377.252 644.767,377 L644.767,377 Z M638.383,346.256 L629.269,359.318 L620.113,346.256 C619.945,346.004 619.651,345.962 619.441,346.13 C619.231,346.256 619.147,346.592 619.315,346.802 L628.807,360.452 C628.849,360.494 628.891,360.536 628.933,360.578 C629.227,360.746 629.521,360.662 629.647,360.452 L639.181,346.802 C639.307,346.592 639.265,346.256 639.055,346.13 C638.845,345.962 638.509,346.004 638.383,346.256 L638.383,346.256 Z M659.467,368.222 L663.877,368.222 C664.171,368.222 664.381,368.012 664.381,367.76 C664.381,367.676 664.381,367.634 664.339,367.55 L662.155,362.174 C662.029,361.88 661.777,361.754 661.483,361.88 C661.273,361.964 661.147,362.258 661.231,362.51 L663.205,367.298 L659.467,367.298 C659.215,367.298 658.963,367.508 658.963,367.76 C658.963,368.012 659.215,368.222 659.467,368.222 L659.467,368.222 Z M656.317,376.706 L657.325,374.27 L666.019,374.27 L667.027,376.706 C667.153,377 667.405,377.084 667.657,377 C667.909,376.916 668.035,376.58 667.951,376.37 L666.817,373.64 C666.775,373.472 666.607,373.346 666.355,373.346 L657.031,373.346 C656.821,373.346 656.611,373.43 656.569,373.64 L655.435,376.37 C655.309,376.58 655.435,376.916 655.729,377 C655.981,377.084 656.233,377 656.317,376.706 L656.317,376.706 Z M649.807,376.706 L661.693,347.6 L673.579,376.706 C673.663,377 673.957,377.084 674.209,377 C674.461,376.916 674.545,376.58 674.461,376.37 L662.155,346.172 C661.987,345.752 661.399,345.71 661.231,346.172 L648.925,376.37 C648.799,376.58 648.925,376.916 649.177,377 C649.429,377.084 649.723,377 649.807,376.706 L649.807,376.706 Z M659.257,343.442 C659.089,343.652 659.089,343.946 659.257,344.156 C659.467,344.366 659.803,344.366 659.971,344.072 L664.213,339.62 C664.423,339.452 664.423,339.158 664.129,338.906 C663.961,338.738 663.709,338.738 663.499,338.99 L659.257,343.442 Z M677.569,375.446 C679.249,376.286 680.845,376.832 682.357,377.168 C690.001,378.974 696.763,375.698 696.763,368.096 C696.763,360.494 687.565,358.94 685.675,357.512 C685.087,357.05 684.751,356.378 684.751,355.748 C684.709,354.32 685.843,353.564 687.103,353.396 C689.077,353.186 691.639,353.984 693.109,354.572 C693.697,354.824 694.075,353.942 693.487,353.69 C691.051,352.682 689.161,352.304 687.145,352.43 C685.213,352.514 683.701,353.942 683.785,355.874 C684.037,359.696 689.245,358.898 693.361,362.762 C696.931,366.038 696.301,371.288 693.445,374.186 C689.707,377.924 682.903,377.126 678.073,374.606 C677.485,374.312 677.023,375.152 677.569,375.446 L677.569,375.446 Z M694.243,347.642 C692.269,346.97 690.757,346.634 689.581,346.466 C682.819,345.542 677.737,349.448 677.737,355.958 C677.737,363.77 686.935,364.862 688.909,366.5 C689.875,367.382 690.043,368.894 689.035,369.818 C686.935,371.75 681.517,370.196 678.871,368.348 C678.367,368.012 677.779,368.768 678.325,369.146 C681.013,371.12 684.415,371.792 687.061,371.624 C689.035,371.498 690.799,370.112 690.673,368.138 C690.421,364.274 685.297,364.988 681.181,361.418 C677.569,358.184 678.241,352.85 680.929,349.952 C684.247,346.34 689.413,346.97 693.907,348.524 C694.495,348.776 694.831,347.852 694.243,347.642 L694.243,347.642 Z M687.145,343.064 L682.819,339.578 C682.651,339.368 682.357,339.41 682.147,339.62 C681.979,339.872 682.021,340.082 682.189,340.292 L686.809,344.156 C687.061,344.324 687.229,344.366 687.481,344.156 L692.143,340.292 C692.311,340.082 692.353,339.914 692.185,339.662 C692.101,339.452 691.681,339.368 691.513,339.578 L687.145,343.064 Z M721.669,368.222 L726.079,368.222 C726.373,368.222 726.583,368.012 726.583,367.76 C726.583,367.676 726.583,367.634 726.541,367.55 L724.357,362.174 C724.231,361.88 723.979,361.754 723.685,361.88 C723.475,361.964 723.349,362.258 723.433,362.51 L725.407,367.298 L721.669,367.298 C721.417,367.298 721.165,367.508 721.165,367.76 C721.165,368.012 721.417,368.222 721.669,368.222 L721.669,368.222 Z M718.519,376.706 L719.527,374.27 L728.221,374.27 L729.229,376.706 C729.355,377 729.607,377.084 729.859,377 C730.111,376.916 730.237,376.58 730.153,376.37 L729.019,373.64 C728.977,373.472 728.809,373.346 728.557,373.346 L719.233,373.346 C719.023,373.346 718.813,373.43 718.771,373.64 L717.637,376.37 C717.511,376.58 717.637,376.916 717.931,377 C718.183,377.084 718.435,377 718.519,376.706 L718.519,376.706 Z M712.009,376.706 L723.895,347.6 L735.781,376.706 C735.865,377 736.159,377.084 736.411,377 C736.663,376.916 736.747,376.58 736.663,376.37 L724.357,346.172 C724.189,345.752 723.601,345.71 723.433,346.172 L711.127,376.37 C711.001,376.58 711.127,376.916 711.379,377 C711.631,377.084 711.925,377 712.009,376.706 L712.009,376.706 Z M768.793,377 L768.793,364.988 C768.793,364.694 768.583,364.484 768.289,364.484 L759.301,364.484 C759.049,364.484 758.797,364.694 758.797,364.988 L758.797,377 C758.797,377.252 759.049,377.462 759.301,377.462 C759.553,377.462 759.805,377.252 759.805,377 L759.805,365.45 L767.827,365.45 L767.827,377 C767.827,377.252 768.037,377.462 768.289,377.462 C768.583,377.462 768.793,377.252 768.793,377 L768.793,377 Z M758.797,346.97 L758.797,358.982 C758.797,359.234 759.049,359.486 759.301,359.486 L768.289,359.486 C768.583,359.486 768.793,359.234 768.793,358.982 L768.793,346.97 C768.793,346.718 768.583,346.508 768.289,346.508 C768.037,346.508 767.827,346.718 767.827,346.97 L767.827,358.478 L759.805,358.478 L759.805,346.97 C759.805,346.718 759.553,346.508 759.301,346.508 C759.049,346.508 758.797,346.718 758.797,346.97 L758.797,346.97 Z M773.833,346.97 L773.833,377 C773.833,377.252 774.043,377.462 774.295,377.462 C774.589,377.462 774.799,377.252 774.799,377 L774.799,346.97 C774.799,346.718 774.589,346.508 774.295,346.508 C774.043,346.508 773.833,346.718 773.833,346.97 L773.833,346.97 Z M753.799,377 L753.799,346.97 C753.799,346.718 753.589,346.508 753.295,346.508 C753.043,346.508 752.833,346.718 752.833,346.97 L752.833,377 C752.833,377.252 753.043,377.462 753.295,377.462 C753.589,377.462 753.799,377.252 753.799,377 L753.799,377 Z M812.095,357.092 C809.953,350.414 803.569,345.878 796.555,345.878 C787.063,345.878 780.511,352.682 780.511,361.922 C780.511,371.204 787.063,378.008 796.555,378.008 C803.569,378.008 809.953,373.514 812.095,366.752 C812.179,366.5 812.011,366.206 811.759,366.122 C811.465,366.038 811.213,366.164 811.129,366.458 C809.113,372.8 803.191,377 796.555,377 C787.651,377 781.477,370.658 781.477,361.922 C781.477,353.186 787.651,346.886 796.555,346.886 C803.191,346.886 809.113,351.086 811.129,357.386 C811.213,357.68 811.465,357.806 811.759,357.722 C812.011,357.68 812.179,357.344 812.095,357.092 L812.095,357.092 Z M788.155,366.836 C789.877,369.86 793.069,371.792 796.555,371.792 C801.973,371.792 806.257,367.298 806.257,361.922 C806.257,356.588 801.973,352.094 796.555,352.094 C793.069,352.094 789.877,353.984 788.155,357.008 C788.029,357.26 788.113,357.554 788.323,357.722 C788.575,357.848 788.911,357.764 789.037,357.512 C790.549,354.782 793.405,353.06 796.555,353.06 C801.427,353.06 805.249,357.092 805.249,361.922 C805.249,366.752 801.427,370.784 796.555,370.784 C793.405,370.784 790.549,369.062 789.037,366.332 C788.911,366.122 788.575,366.038 788.323,366.164 C788.113,366.29 788.029,366.626 788.155,366.836 L788.155,366.836 Z M843.217,377 L843.217,347.012 C843.217,346.34 842.209,346.34 842.209,347.012 L842.209,377 C842.209,377.63 843.217,377.63 843.217,377 L843.217,377 Z M818.731,377 L818.731,347.012 C818.731,346.34 817.765,346.34 817.765,347.012 L817.765,377 C817.765,377.63 818.731,377.63 818.731,377 L818.731,377 Z M823.309,347.264 L836.329,365.954 C836.581,366.374 837.253,366.122 837.253,365.66 L837.253,347.012 C837.253,346.34 836.245,346.34 836.245,347.012 L836.245,364.106 L824.065,346.718 C823.729,346.172 822.931,346.76 823.309,347.264 L823.309,347.264 Z M837.715,376.706 L824.695,358.016 C824.359,357.638 823.771,357.848 823.771,358.31 L823.771,377 C823.771,377.63 824.779,377.63 824.779,377 L824.779,359.864 L836.875,377.294 C837.295,377.798 838.051,377.252 837.715,376.706 L837.715,376.706 Z M868.669,376.454 L848.803,376.454 L858.295,353.186 C858.463,352.766 858.211,352.472 857.875,352.472 L849.055,352.472 C848.803,352.472 848.593,352.682 848.593,352.934 C848.593,353.27 848.803,353.48 849.055,353.48 L857.119,353.48 L847.627,376.79 C847.459,377.168 847.753,377.462 848.173,377.462 L868.669,377.462 C868.963,377.462 869.173,377.252 869.173,377 C869.173,376.706 868.963,376.454 868.669,376.454 L868.669,376.454 Z M849.055,347.432 L866.065,347.432 L856.573,370.784 C856.405,371.162 856.657,371.456 857.035,371.456 L868.669,371.456 C868.963,371.456 869.173,371.246 869.173,370.952 C869.173,370.7 868.963,370.49 868.669,370.49 L857.749,370.49 L867.241,347.18 C867.367,346.802 867.157,346.466 866.737,346.466 L849.055,346.466 C848.803,346.466 848.593,346.718 848.593,346.97 C848.593,347.222 848.803,347.432 849.055,347.432 L849.055,347.432 Z M881.899,368.222 L886.309,368.222 C886.603,368.222 886.813,368.012 886.813,367.76 C886.813,367.676 886.813,367.634 886.771,367.55 L884.587,362.174 C884.461,361.88 884.209,361.754 883.915,361.88 C883.705,361.964 883.579,362.258 883.663,362.51 L885.637,367.298 L881.899,367.298 C881.647,367.298 881.395,367.508 881.395,367.76 C881.395,368.012 881.647,368.222 881.899,368.222 L881.899,368.222 Z M878.749,376.706 L879.757,374.27 L888.451,374.27 L889.459,376.706 C889.585,377 889.837,377.084 890.089,377 C890.341,376.916 890.467,376.58 890.383,376.37 L889.249,373.64 C889.207,373.472 889.039,373.346 888.787,373.346 L879.463,373.346 C879.253,373.346 879.043,373.43 879.001,373.64 L877.867,376.37 C877.741,376.58 877.867,376.916 878.161,377 C878.413,377.084 878.665,377 878.749,376.706 L878.749,376.706 Z M872.239,376.706 L884.125,347.6 L896.011,376.706 C896.095,377 896.389,377.084 896.641,377 C896.893,376.916 896.977,376.58 896.893,376.37 L884.587,346.172 C884.419,345.752 883.831,345.71 883.663,346.172 L871.357,376.37 C871.231,376.58 871.357,376.916 871.609,377 C871.861,377.084 872.155,377 872.239,376.706 L872.239,376.706 Z" id="TOMáš-a-honza"></path>
        </g>
    </g>
</svg>